<mxfile host="app.diagrams.net" modified="2023-01-04T18:40:19.510Z" agent="5.0 (Windows NT 10.0; Win64; x64) AppleWebKit/537.36 (KHTML, like Gecko) Chrome/108.0.0.0 Safari/537.36 Edg/108.0.1462.54" version="20.8.1" etag="oY1PBB_M6srT-Gv4pkBU" type="github">
  <diagram id="7s7Kx525giFVozBd7iyc" name="Sayfa -1">
    <mxGraphModel dx="1156" dy="630" grid="1" gridSize="10" guides="1" tooltips="1" connect="1" arrows="1" fold="1" page="1" pageScale="1" pageWidth="827" pageHeight="1169" math="0" shadow="0">
      <root>
        <mxCell id="0" />
        <mxCell id="1" parent="0" />
        <mxCell id="1r1zmwSj_Dzjw10tYjgr-10" value="CengStudent" style="swimlane;fontStyle=1;align=center;verticalAlign=top;childLayout=stackLayout;horizontal=1;startSize=26;horizontalStack=0;resizeParent=1;resizeParentMax=0;resizeLast=0;collapsible=1;marginBottom=0;fontSize=12;" vertex="1" parent="1">
          <mxGeometry x="90" y="10" width="250" height="294" as="geometry" />
        </mxCell>
        <mxCell id="1r1zmwSj_Dzjw10tYjgr-16" value="-DEPARTMENT: String" style="text;strokeColor=none;fillColor=none;align=left;verticalAlign=top;spacingLeft=4;spacingRight=4;overflow=hidden;rotatable=0;points=[[0,0.5],[1,0.5]];portConstraint=eastwest;fontStyle=4;fontSize=12;" vertex="1" parent="1r1zmwSj_Dzjw10tYjgr-10">
          <mxGeometry y="26" width="250" height="30" as="geometry" />
        </mxCell>
        <mxCell id="1r1zmwSj_Dzjw10tYjgr-11" value="-id: String&#xa;-fullName: String&#xa;-birthdate: LocalDate&#xa;-semester: int" style="text;strokeColor=none;fillColor=none;align=left;verticalAlign=top;spacingLeft=4;spacingRight=4;overflow=hidden;rotatable=0;points=[[0,0.5],[1,0.5]];portConstraint=eastwest;fontSize=12;fontStyle=0;fontColor=default;" vertex="1" parent="1r1zmwSj_Dzjw10tYjgr-10">
          <mxGeometry y="56" width="250" height="80" as="geometry" />
        </mxCell>
        <mxCell id="1r1zmwSj_Dzjw10tYjgr-12" value="" style="line;strokeWidth=1;fillColor=none;align=left;verticalAlign=middle;spacingTop=-1;spacingLeft=3;spacingRight=3;rotatable=0;labelPosition=right;points=[];portConstraint=eastwest;strokeColor=inherit;fontSize=12;" vertex="1" parent="1r1zmwSj_Dzjw10tYjgr-10">
          <mxGeometry y="136" width="250" height="14" as="geometry" />
        </mxCell>
        <mxCell id="1r1zmwSj_Dzjw10tYjgr-13" value="+CengStudent(id: String, fullName: String)&#xa;+getId(): String&#xa;+getBirthDate(): LocalDate&#xa;+setBirthDate(birthDate: LocalDate)&#xa;+getSemester(): int&#xa;+setSemester(semester: int)&#xa;+isBirthday(): boolean " style="text;strokeColor=none;fillColor=none;align=left;verticalAlign=top;spacingLeft=4;spacingRight=4;overflow=hidden;rotatable=0;points=[[0,0.5],[1,0.5]];portConstraint=eastwest;fontSize=12;" vertex="1" parent="1r1zmwSj_Dzjw10tYjgr-10">
          <mxGeometry y="150" width="250" height="106" as="geometry" />
        </mxCell>
        <mxCell id="1r1zmwSj_Dzjw10tYjgr-14" value="getDepartment(): String" style="text;strokeColor=none;fillColor=none;align=left;verticalAlign=top;spacingLeft=4;spacingRight=4;overflow=hidden;rotatable=0;points=[[0,0.5],[1,0.5]];portConstraint=eastwest;fontStyle=4;fontSize=12;" vertex="1" parent="1r1zmwSj_Dzjw10tYjgr-10">
          <mxGeometry y="256" width="250" height="38" as="geometry" />
        </mxCell>
      </root>
    </mxGraphModel>
  </diagram>
</mxfile>
